<svg id="Layer_1" data-name="Layer 1" xmlns="http://www.w3.org/2000/svg" viewBox="0 0 989.25 231.72"><defs><style>.cls-1,.cls-7{fill:none;}.cls-2,.cls-4{isolation:isolate;}.cls-2{font-size:68.08px;fill:#29abe2;font-family:GillSans-Bold, Gill Sans;font-weight:700;}.cls-3{fill:#fff;}.cls-4{font-size:35.87px;fill:#fbb03b;font-family:GillSans, Gill Sans;letter-spacing:0.06em;}.cls-5{letter-spacing:-0.07em;}.cls-6{letter-spacing:0.05em;}.cls-7{stroke:#29abe2;stroke-miterlimit:10;stroke-width:7px;}</style></defs><polygon class="cls-1" points="336.27 33.42 463.87 33.42 463.87 33.42 336.27 33.42"/><rect class="cls-1" x="485.81" y="210.79" width="503.45" height="20.93"/><text class="cls-2" transform="translate(49.15 57.25) scale(1.05 1)">INDELECT</text><path d="M465.37,224.84" transform="translate(-1.5 -26)"/><rect class="cls-1" x="76.07" y="104.17" width="335.96" height="3.99"/><rect class="cls-3" x="454.9" y="210.79" width="1" height="17.94"/><text class="cls-4" transform="translate(137.88 132.07)">Building<tspan class="cls-5" x="129.04" y="0" xml:space="preserve"> T</tspan><tspan class="cls-6" x="155.66" y="0">rust</tspan></text><path class="cls-7" d="M46.89,57.92c-1.16,0-25.47-.69-36.64,12.12-1.43,1.64-6.51,7.67-5,15.7,1.46,7.51,7.82,12.1,9.91,13.55,8.32,5.81,19.34,6.79,24.77,7.14,73.47,4.76,401.51-1.46,423,0a40.45,40.45,0,0,0,10.9-.72c5.75-1.21,14.31-4.47,18.82-11.41,5.37-8.29,1-16,0-17.83a26.46,26.46,0,0,0-11.88-10.7C474.9,63,468.93,62.48,457,61.49c-6.6-.54-12.09-.68-15.85-.71" transform="translate(-1.5 -26)"/><rect class="cls-3" x="50.15" y="30.43" width="386.81" height="4.98"/></svg>